<?xml version="1.0" encoding="UTF-8" standalone="no"?>
<svg width="73px" height="30px" viewBox="0 0 73 30" version="1.1" xmlns="http://www.w3.org/2000/svg" xmlns:xlink="http://www.w3.org/1999/xlink" xmlns:sketch="http://www.bohemiancoding.com/sketch/ns">
    <!-- Generator: Sketch 3.5.2 (25235) - http://www.bohemiancoding.com/sketch -->
    <title>GrM</title>
    <desc>Created with Sketch.</desc>
    <defs></defs>
    <g id="Page-1" stroke="none" stroke-width="1" fill="none" fill-rule="evenodd" sketch:type="MSPage">
        <g id="GrM" sketch:type="MSLayerGroup" transform="translate(0.000000, -0.000000)" fill="#FFFFFF">
            <path d="M43.0722086,8.3394207 C41.4505043,8.00176554 40.7604173,7.93423446 39.6562782,7.93423446 C36.5163826,7.93423446 34.4461217,8.84590344 32.7554086,11.0068966 L32.7554086,8.3394207 L25.8890434,8.3394207 C26.0960695,9.79133796 26.1650782,10.973131 26.1650782,13.4380138 L26.1650782,23.8377931 C26.1650782,26.0325517 26.0960695,27.2481103 25.8890434,28.9363862 L33.0314434,28.9363862 C32.8244173,27.3156414 32.7554086,26.0325517 32.7554086,23.8715586 L32.7554086,18.604138 C32.893426,17.1184552 33.1349565,16.4093793 33.7905391,15.5990069 C34.7911652,14.3834483 36.1368347,13.775669 37.8965565,13.775669 C38.9661913,13.775669 39.8288,13.9444966 41.416,14.4172138 L43.0722086,8.3394207 L43.0722086,8.3394207 Z" id="r" sketch:type="MSShapeGroup"></path>
            <path d="M19.7623652,18.671669 L19.7623652,22.520938 C18.0716522,23.3650759 16.5879653,23.7364966 14.7592348,23.7364966 C12.5854609,23.7364966 10.8947479,23.0949517 9.79060872,21.9131586 C8.41043484,20.4274759 7.68584352,17.9963586 7.68584352,14.8561655 C7.68584352,9.1835586 10.1011479,6.04336554 14.5177044,6.04336554 C15.966887,6.04336554 17.1055305,6.3810207 18.0026435,7.09009656 C18.7617392,7.66411032 19.1757914,8.30565516 19.5553392,9.52121382 L26.5942261,7.93423446 C26.0421566,6.31348968 25.490087,5.30052414 24.5584696,4.2537931 C22.2811826,1.55255173 19.0032696,0.235696552 14.6902261,0.235696552 C5.99513048,0.235696552 0.508939182,5.87453793 0.508939182,14.754869 C0.508939182,19.3807448 1.95812179,23.3988414 4.58045222,25.9650207 C7.0302609,28.396138 10.4461913,29.577931 14.8282435,29.577931 C17.3815652,29.577931 19.9003826,29.1727448 22.1431652,28.4299034 C23.6958609,27.9234207 24.6274783,27.484469 26.5252174,26.3026759 C26.3181914,24.749462 26.283687,23.6689655 26.283687,21.2716138 L26.283687,17.4898759 C26.283687,15.2951173 26.3526957,14.1808552 26.5252174,12.8977655 C25.0070261,13.0328276 23.7303653,13.0665931 21.9706435,13.0665931 L19.2102957,13.0665931 C16.7949914,13.0665931 15.966887,13.0328276 14.6902261,12.864 L14.6902261,18.8404966 C15.7598609,18.7054345 16.3464349,18.671669 18.1061566,18.671669 L19.7623652,18.671669 L19.7623652,18.671669 Z" id="G" sketch:type="MSShapeGroup"></path>
            <path d="M59.6321392,28.9363862 C59.8046609,27.8558897 60.2532174,26.3702069 61.115826,23.9728552 L64.4627478,14.7211034 C64.9113042,13.5055448 65.256348,12.2899862 66.0154434,9.65627586 C65.9809392,10.1627586 65.9809392,10.1627586 65.877426,11.952331 C65.8084176,12.999062 65.7049044,15.5314759 65.7049044,16.3418483 L65.7049044,23.702731 C65.7049044,26.1000827 65.6358954,27.3831724 65.4288696,28.9363862 L72.2262258,28.9363862 C72.0192,27.5857655 71.9501916,26.2689103 71.9501916,23.702731 L71.9501916,6.11089656 C71.9501916,3.8486069 72.0192,2.46422069 72.2262258,0.84347586 L63.0825738,0.84347586 C62.875548,2.26162759 62.5995132,3.34212414 61.805913,5.6044138 L56.6647652,20.1573517 L51.489113,5.6044138 C50.695513,3.37588966 50.4194783,2.2953931 50.1779478,0.84347586 L41.0688,0.84347586 C41.2413217,2.2953931 41.3448348,4.08496552 41.3448348,6.11089656 L41.3448348,23.702731 C41.3448348,25.9987862 41.2758261,27.416938 41.0688,28.9363862 L47.8661565,28.9363862 C47.6591305,27.5182345 47.5901218,26.0325517 47.5901218,23.702731 L47.5901218,16.3756138 C47.5901218,14.5860414 47.4521044,11.817269 47.2450783,9.6900414 C47.4176,10.1627586 47.4176,10.1627586 47.7971478,11.3783173 C47.9006609,11.6484414 48.9357913,14.7886345 48.9702956,14.957462 L52.1446957,23.9390897 C53.076313,26.505269 53.4558608,27.7545931 53.6283826,28.9363862 L59.6321392,28.9363862 L59.6321392,28.9363862 Z" id="M" sketch:type="MSShapeGroup"></path>
        </g>
    </g>
</svg>